/*
  Arduino Christmas Songs
  
  Based on a project and code by Dipto Pratyaksa, updated on 31/3/13

  Modified for Christmas by Joshi, on Dec 17th, 2017.
*/


void buzz(int targetPin, long frequency, long length);

// Jingle Bells

int melody[] = {
  NOTE_E5, NOTE_E5, NOTE_E5,
  NOTE_E5, NOTE_E5, NOTE_E5,
  NOTE_E5, NOTE_G5, NOTE_C5, NOTE_D5,
  NOTE_E5,
  NOTE_F5, NOTE_F5, NOTE_F5, NOTE_F5,
  NOTE_F5, NOTE_E5, NOTE_E5, NOTE_E5, NOTE_E5,
  NOTE_E5, NOTE_D5, NOTE_D5, NOTE_E5,
  NOTE_D5, NOTE_G5
};

int tempo[] = {
  8, 8, 4,
  8, 8, 4,
  8, 8, 8, 8,
  2,
  8, 8, 8, 8,
  8, 8, 8, 16, 16,
  8, 8, 8, 8,
  4, 4
};

void play(int * melody, int * tempo, int len)
{  
 for (int thisNote = 0; thisNote < len; thisNote++) {
      // to calculate the note duration, take one second
      // divided by the note type.
      //e.g. quarter note = 1000 / 4, eighth note = 1000/8, etc.
      digitalWrite(13, HIGH);
      int noteDuration = 2000/tempo[thisNote];
      tone(BUZZER, melody[thisNote],noteDuration);
      //pause for the note's duration plus 30 ms:
      delay(noteDuration +30);
      digitalWrite(13, LOW);
   }
}

// We wish you a merry Christmas

int wish_melody[] = {
  NOTE_B3, 
  NOTE_F4, NOTE_F4, NOTE_G4, NOTE_F4, NOTE_E4,
  NOTE_D4, NOTE_D4, NOTE_D4,
  NOTE_G4, NOTE_G4, NOTE_A4, NOTE_G4, NOTE_F4,
  NOTE_E4, NOTE_E4, NOTE_E4,
  NOTE_A4, NOTE_A4, NOTE_B4, NOTE_A4, NOTE_G4,
  NOTE_F4, NOTE_D4, NOTE_B3, NOTE_B3,
  NOTE_D4, NOTE_G4, NOTE_E4,
  NOTE_F4
};

int wish_tempo[] = {
  4,
  4, 8, 8, 8, 8,
  4, 4, 4,
  4, 8, 8, 8, 8,
  4, 4, 4,
  4, 8, 8, 8, 8,
  4, 4, 8, 8,
  4, 4, 4,
  2
};

// Santa Claus is coming to town

int santa_melody[] = {
  NOTE_G4,
  NOTE_E4, NOTE_F4, NOTE_G4, NOTE_G4, NOTE_G4,
  NOTE_A4, NOTE_B4, NOTE_C5, NOTE_C5, NOTE_C5,
  NOTE_E4, NOTE_F4, NOTE_G4, NOTE_G4, NOTE_G4,
  NOTE_A4, NOTE_G4, NOTE_F4, NOTE_F4,
  NOTE_E4, NOTE_G4, NOTE_C4, NOTE_E4,
  NOTE_D4, NOTE_F4, NOTE_B3,
  NOTE_C4
};

int santa_tempo[] = {
  8,
  8, 8, 4, 4, 4,
  8, 8, 4, 4, 4,
  8, 8, 4, 4, 4,
  8, 8, 4, 2,
  4, 4, 4, 4,
  4, 2, 4,
  1
};


void xmas(int song) {
  if (song==0)
    play(melody,tempo, sizeof(melody) / sizeof(int));
    else if (song==1)
    play(wish_melody,wish_tempo,sizeof(wish_melody) / sizeof(int));
    else
    play(santa_melody,santa_tempo,sizeof(santa_tempo) / sizeof(int));
}


void playstuff() {
  int melody[] = {
  NOTE_C4, NOTE_G3,NOTE_G3, NOTE_GS3, NOTE_G3,0, NOTE_B3, NOTE_C4};
  // note durations: 4 = quarter note, 8 = eighth note, etc.:

  int noteDurations[] = {
    4, 8, 8, 4,4,4,4,4 
  };

 play(melody, noteDurations, sizeof(melody) / sizeof(int));

}